<svg xmlns="http://www.w3.org/2000/svg" viewBox="0 0 256 255" role="img" aria-label="Python">
  <path fill="#3776AB" d="M126.916.072c-64.832 0-60.784 28.115-60.784 28.115l.072 29.193h61.868v8.745H41.631S0 63.494 0 128.222c0 64.728 36.21 62.305 36.21 62.305h21.61v-29.978c0-36.728 31.364-35.305 31.364-35.305h53.872c31.364 0 31.364-21.818 31.364-31.364V36.21S191.833.072 126.916.072zM92.803 20.898a11.12 11.12 0 1 1 0 22.24 11.12 11.12 0 0 1 0-22.24z"/>
  <path fill="#FFD43B" d="M128.757 254.928c64.832 0 60.784-28.115 60.784-28.115l-.072-29.193H127.6v-8.745h86.441S256 191.506 256 126.778c0-64.728-36.21-62.305-36.21-62.305h-21.61v29.978c0 36.728-31.364 35.305-31.364 35.305h-53.872c-31.364 0-31.364 21.818-31.364 31.364v53.357s-5.083 36.21 69.834 36.21zM162.87 234.102a11.12 11.12 0 1 1 0-22.24 11.12 11.12 0 0 1 0 22.24z"/>
</svg>
